ffmpeg started on 2025-06-16 at 17:16:38
Report written to "D:\Convert\FFMetrics\reports\psnr_report-6.txt"
Log level: 32
Command line:
ffmpeg -hide_banner -nostdin -i "G:\\\xc0\xed\xe8\xec\xe5\\[\xd2\xee\xef]\\\xd0\xfb\xf6\xe0\xf0\xfc-\xe2\xe0\xec\xef\xe8\xf0\\\xd2\xc2-2\\[JamClub] Vampire Knight Guilty - 13_HEVC.mkv" -i "G:\\\xc0\xed\xe8\xec\xe5\\[\xd2\xee\xef]\\\xd0\xfb\xf6\xe0\xf0\xfc-\xe2\xe0\xec\xef\xe8\xf0\\\xd2\xc2-2\\[JamClub] Vampire Knight Guilty - 13.mp4" -lavfi "[0:v]settb=AVTB,setpts=PTS-STARTPTS,format=pix_fmts=yuv420p10,fps=24000/1001,scale=1920:1080:flags=bicubic[main];[1:v]settb=AVTB,setpts=PTS-STARTPTS,format=pix_fmts=yuv420p,fps=24000/1001,scale=1920:1080:flags=bicubic[ref];[main][ref]psnr=eof_action=endall:stats_file='D\\:/Convert/FFMetrics/logs/psnr_logfile-6.txt'" -f null -
Input #0, matroska,webm, from 'G:\Аниме\[Топ]\Рыцарь-вампир\ТВ-2\[JamClub] Vampire Knight Guilty - 13_HEVC.mkv':
  Metadata:
    COMPATIBLE_BRANDS: isomiso2avc1mp41
    MAJOR_BRAND     : isom
    MINOR_VERSION   : 512
    ENCODER         : Lavf61.7.100
  Duration: 00:24:23.08, start: -0.001000, bitrate: 1067 kb/s
  Stream #0:0: Video: hevc (Main 10), yuv420p10le(tv, bt709, progressive), 1920x1080 [SAR 1:1 DAR 16:9], 23.98 fps, 23.98 tbr, 1k tbn (default)
      Metadata:
        HANDLER_NAME    : VideoHandler
        VENDOR_ID       : [0][0][0][0]
        ENCODER         : Lavc61.19.100 libx265
        BPS             : 869314
        DURATION        : 00:24:23.003708333
        NUMBER_OF_FRAMES: 43713
        NUMBER_OF_BYTES : 158976130
        _STATISTICS_WRITING_APP: mkvpropedit v66.0.0 ('Josie') 64-bit
        _STATISTICS_WRITING_DATE_UTC: 2025-06-16 12:57:17
        _STATISTICS_TAGS: BPS DURATION NUMBER_OF_FRAMES NUMBER_OF_BYTES
  Stream #0:1(eng): Audio: aac (LC), 48000 Hz, stereo, fltp (default)
      Metadata:
        HANDLER_NAME    : SoundHandler
        VENDOR_ID       : [0][0][0][0]
        ENCODER         : Lavc61.19.100 aac
        BPS             : 194251
        DURATION        : 00:24:23.034000000
        NUMBER_OF_FRAMES: 68581
        NUMBER_OF_BYTES : 35524634
        _STATISTICS_WRITING_APP: mkvpropedit v66.0.0 ('Josie') 64-bit
        _STATISTICS_WRITING_DATE_UTC: 2025-06-16 12:57:17
        _STATISTICS_TAGS: BPS DURATION NUMBER_OF_FRAMES NUMBER_OF_BYTES
Input #1, mov,mp4,m4a,3gp,3g2,mj2, from 'G:\Аниме\[Топ]\Рыцарь-вампир\ТВ-2\[JamClub] Vampire Knight Guilty - 13.mp4':
  Metadata:
    major_brand     : isom
    minor_version   : 512
    compatible_brands: isomiso2avc1mp41
    encoder         : Lavf60.16.100
  Duration: 00:24:23.05, start: 0.000000, bitrate: 3971 kb/s
  Stream #1:0[0x1](und): Video: h264 (High) (avc1 / 0x31637661), yuv420p(progressive), 1920x1080 [SAR 1:1 DAR 16:9], 3770 kb/s, 29.88 fps, 23.98 tbr, 90k tbn (default)
      Metadata:
        handler_name    : VideoHandler
        vendor_id       : [0][0][0][0]
  Stream #1:1[0x2](eng): Audio: aac (LC) (mp4a / 0x6134706D), 48000 Hz, stereo, fltp, 191 kb/s (default)
      Metadata:
        handler_name    : SoundHandler
        vendor_id       : [0][0][0][0]
Stream mapping:
  Stream #0:0 (hevc) -> settb:default
  Stream #1:0 (h264) -> settb:default
  psnr:default -> Stream #0:0 (wrapped_avframe)
  Stream #0:1 -> #0:1 (aac (native) -> pcm_s16le (native))
Output #0, null, to 'pipe:':
  Metadata:
    COMPATIBLE_BRANDS: isomiso2avc1mp41
    MAJOR_BRAND     : isom
    MINOR_VERSION   : 512
    encoder         : Lavf61.7.100
  Stream #0:0: Video: wrapped_avframe, yuv420p10le(tv, bt709, progressive), 1920x1080 [SAR 1:1 DAR 16:9], q=2-31, 200 kb/s, 23.98 fps, 23.98 tbn
      Metadata:
        encoder         : Lavc61.19.100 wrapped_avframe
  Stream #0:1(eng): Audio: pcm_s16le, 48000 Hz, stereo, s16, 1536 kb/s (default)
      Metadata:
        HANDLER_NAME    : SoundHandler
        VENDOR_ID       : [0][0][0][0]
        _STATISTICS_TAGS: BPS DURATION NUMBER_OF_FRAMES NUMBER_OF_BYTES
        BPS             : 194251
        DURATION        : 00:24:23.034000000
        NUMBER_OF_FRAMES: 68581
        NUMBER_OF_BYTES : 35524634
        _STATISTICS_WRITING_APP: mkvpropedit v66.0.0 ('Josie') 64-bit
        _STATISTICS_WRITING_DATE_UTC: 2025-06-16 12:57:17
        encoder         : Lavc61.19.100 pcm_s16le
frame=  113 fps=0.0 q=-0.0 size=N/A time=00:00:04.71 bitrate=N/A speed=9.14x    frame=  275 fps=269 q=-0.0 size=N/A time=00:00:11.46 bitrate=N/A speed=11.2x    frame=  480 fps=310 q=-0.0 size=N/A time=00:00:20.02 bitrate=N/A speed=12.9x    frame=  713 fps=346 q=-0.0 size=N/A time=00:00:29.73 bitrate=N/A speed=14.4x    frame=  917 fps=355 q=-0.0 size=N/A time=00:00:38.24 bitrate=N/A speed=14.8x    frame= 1129 fps=365 q=-0.0 size=N/A time=00:00:47.08 bitrate=N/A speed=15.2x    frame= 1353 fps=375 q=-0.0 size=N/A time=00:00:56.43 bitrate=N/A speed=15.6x    frame= 1569 fps=381 q=-0.0 size=N/A time=00:01:05.44 bitrate=N/A speed=15.9x    frame= 1784 fps=384 q=-0.0 size=N/A time=00:01:14.40 bitrate=N/A speed=  16x    frame= 1982 fps=385 q=-0.0 size=N/A time=00:01:22.66 bitrate=N/A speed=  16x    frame= 2180 fps=385 q=-0.0 size=N/A time=00:01:30.92 bitrate=N/A speed=16.1x    frame= 2412 fps=390 q=-0.0 size=N/A time=00:01:40.60 bitrate=N/A speed=16.2x    frame= 2623 fps=391 q=-0.0 size=N/A time=00:01:49.40 bitrate=N/A speed=16.3x    frame= 2813 fps=390 q=-0.0 size=N/A time=00:01:57.32 bitrate=N/A speed=16.3x    frame= 2979 fps=385 q=-0.0 size=N/A time=00:02:04.24 bitrate=N/A speed=16.1x    frame= 3198 fps=388 q=-0.0 size=N/A time=00:02:13.42 bitrate=N/A speed=16.2x    frame= 3427 fps=391 q=-0.0 size=N/A time=00:02:22.93 bitrate=N/A speed=16.3x    frame= 3644 fps=393 q=-0.0 size=N/A time=00:02:31.98 bitrate=N/A speed=16.4x    frame= 3867 fps=395 q=-0.0 size=N/A time=00:02:41.28 bitrate=N/A speed=16.5x    frame= 4093 fps=397 q=-0.0 size=N/A time=00:02:50.71 bitrate=N/A speed=16.5x    frame= 4317 fps=399 q=-0.0 size=N/A time=00:03:00.05 bitrate=N/A speed=16.6x    frame= 4547 fps=401 q=-0.0 size=N/A time=00:03:09.64 bitrate=N/A speed=16.7x    frame= 4773 fps=402 q=-0.0 size=N/A time=00:03:19.07 bitrate=N/A speed=16.8x    frame= 5005 fps=404 q=-0.0 size=N/A time=00:03:28.75 bitrate=N/A speed=16.8x    frame= 5248 fps=407 q=-0.0 size=N/A time=00:03:38.88 bitrate=N/A speed=  17x    frame= 5468 fps=408 q=-0.0 size=N/A time=00:03:48.06 bitrate=N/A speed=  17x    frame= 5698 fps=409 q=-0.0 size=N/A time=00:03:57.65 bitrate=N/A speed=  17x    frame= 5907 fps=409 q=-0.0 size=N/A time=00:04:06.37 bitrate=N/A speed=17.1x    frame= 6112 fps=408 q=-0.0 size=N/A time=00:04:14.92 bitrate=N/A speed=  17x    frame= 6301 fps=407 q=-0.0 size=N/A time=00:04:22.80 bitrate=N/A speed=  17x    frame= 6507 fps=407 q=-0.0 size=N/A time=00:04:31.39 bitrate=N/A speed=  17x    frame= 6739 fps=408 q=-0.0 size=N/A time=00:04:41.07 bitrate=N/A speed=  17x    frame= 6976 fps=410 q=-0.0 size=N/A time=00:04:50.95 bitrate=N/A speed=17.1x    frame= 7193 fps=410 q=-0.0 size=N/A time=00:05:00.00 bitrate=N/A speed=17.1x    frame= 7413 fps=410 q=-0.0 size=N/A time=00:05:09.18 bitrate=N/A speed=17.1x    frame= 7657 fps=412 q=-0.0 size=N/A time=00:05:19.36 bitrate=N/A speed=17.2x    frame= 7887 fps=413 q=-0.0 size=N/A time=00:05:28.95 bitrate=N/A speed=17.2x    frame= 8100 fps=413 q=-0.0 size=N/A time=00:05:37.83 bitrate=N/A speed=17.2x    frame= 8321 fps=413 q=-0.0 size=N/A time=00:05:47.05 bitrate=N/A speed=17.2x    frame= 8540 fps=414 q=-0.0 size=N/A time=00:05:56.18 bitrate=N/A speed=17.2x    frame= 8781 fps=415 q=-0.0 size=N/A time=00:06:06.24 bitrate=N/A speed=17.3x    frame= 8979 fps=414 q=-0.0 size=N/A time=00:06:14.49 bitrate=N/A speed=17.3x    frame= 9202 fps=414 q=-0.0 size=N/A time=00:06:23.80 bitrate=N/A speed=17.3x    frame= 9434 fps=415 q=-0.0 size=N/A time=00:06:33.47 bitrate=N/A speed=17.3x    frame= 9670 fps=416 q=-0.0 size=N/A time=00:06:43.31 bitrate=N/A speed=17.4x    frame= 9905 fps=417 q=-0.0 size=N/A time=00:06:53.12 bitrate=N/A speed=17.4x    frame=10126 fps=417 q=-0.0 size=N/A time=00:07:02.33 bitrate=N/A speed=17.4x    frame=10340 fps=417 q=-0.0 size=N/A time=00:07:11.26 bitrate=N/A speed=17.4x    frame=10580 fps=418 q=-0.0 size=N/A time=00:07:21.27 bitrate=N/A speed=17.4x    frame=10813 fps=419 q=-0.0 size=N/A time=00:07:30.99 bitrate=N/A speed=17.5x    frame=11021 fps=419 q=-0.0 size=N/A time=00:07:39.66 bitrate=N/A speed=17.5x    frame=11226 fps=418 q=-0.0 size=N/A time=00:07:48.21 bitrate=N/A speed=17.4x    frame=11443 fps=418 q=-0.0 size=N/A time=00:07:57.26 bitrate=N/A speed=17.4x    frame=11685 fps=419 q=-0.0 size=N/A time=00:08:07.36 bitrate=N/A speed=17.5x    frame=11925 fps=420 q=-0.0 size=N/A time=00:08:17.37 bitrate=N/A speed=17.5x    frame=12164 fps=421 q=-0.0 size=N/A time=00:08:27.34 bitrate=N/A speed=17.6x    frame=12395 fps=421 q=-0.0 size=N/A time=00:08:36.97 bitrate=N/A speed=17.6x    frame=12632 fps=422 q=-0.0 size=N/A time=00:08:46.85 bitrate=N/A speed=17.6x    frame=12848 fps=422 q=-0.0 size=N/A time=00:08:55.86 bitrate=N/A speed=17.6x    frame=13087 fps=423 q=-0.0 size=N/A time=00:09:05.83 bitrate=N/A speed=17.6x    frame=13325 fps=423 q=-0.0 size=N/A time=00:09:15.76 bitrate=N/A speed=17.7x    frame=13562 fps=424 q=-0.0 size=N/A time=00:09:25.64 bitrate=N/A speed=17.7x    frame=13809 fps=425 q=-0.0 size=N/A time=00:09:35.95 bitrate=N/A speed=17.7x    frame=14024 fps=425 q=-0.0 size=N/A time=00:09:44.91 bitrate=N/A speed=17.7x    frame=14247 fps=425 q=-0.0 size=N/A time=00:09:54.21 bitrate=N/A speed=17.7x    frame=14467 fps=425 q=-0.0 size=N/A time=00:10:03.39 bitrate=N/A speed=17.7x    frame=14684 fps=425 q=-0.0 size=N/A time=00:10:12.44 bitrate=N/A speed=17.7x    frame=14906 fps=425 q=-0.0 size=N/A time=00:10:21.70 bitrate=N/A speed=17.7x    frame=15104 fps=424 q=-0.0 size=N/A time=00:10:29.96 bitrate=N/A speed=17.7x    frame=15324 fps=424 q=-0.0 size=N/A time=00:10:39.13 bitrate=N/A speed=17.7x    frame=15533 fps=424 q=-0.0 size=N/A time=00:10:47.89 bitrate=N/A speed=17.7x    frame=15746 fps=424 q=-0.0 size=N/A time=00:10:56.73 bitrate=N/A speed=17.7x    frame=15975 fps=424 q=-0.0 size=N/A time=00:11:06.29 bitrate=N/A speed=17.7x    frame=16205 fps=424 q=-0.0 size=N/A time=00:11:15.88 bitrate=N/A speed=17.7x    frame=16428 fps=424 q=-0.0 size=N/A time=00:11:25.18 bitrate=N/A speed=17.7x    frame=16651 fps=425 q=-0.0 size=N/A time=00:11:34.48 bitrate=N/A speed=17.7x    frame=16877 fps=425 q=-0.0 size=N/A time=00:11:43.91 bitrate=N/A speed=17.7x    frame=17110 fps=425 q=-0.0 size=N/A time=00:11:53.62 bitrate=N/A speed=17.7x    frame=17341 fps=425 q=-0.0 size=N/A time=00:12:03.26 bitrate=N/A speed=17.7x    frame=17590 fps=426 q=-0.0 size=N/A time=00:12:13.64 bitrate=N/A speed=17.8x    frame=17828 fps=426 q=-0.0 size=N/A time=00:12:23.57 bitrate=N/A speed=17.8x    frame=18051 fps=426 q=-0.0 size=N/A time=00:12:32.87 bitrate=N/A speed=17.8x    frame=18275 fps=427 q=-0.0 size=N/A time=00:12:42.21 bitrate=N/A speed=17.8x    frame=18502 fps=427 q=-0.0 size=N/A time=00:12:51.68 bitrate=N/A speed=17.8x    frame=18721 fps=427 q=-0.0 size=N/A time=00:13:00.82 bitrate=N/A speed=17.8x    frame=18946 fps=427 q=-0.0 size=N/A time=00:13:10.20 bitrate=N/A speed=17.8x    frame=19181 fps=427 q=-0.0 size=N/A time=00:13:20.00 bitrate=N/A speed=17.8x    frame=19399 fps=427 q=-0.0 size=N/A time=00:13:29.09 bitrate=N/A speed=17.8x    frame=19646 fps=428 q=-0.0 size=N/A time=00:13:39.40 bitrate=N/A speed=17.8x    frame=19882 fps=428 q=-0.0 size=N/A time=00:13:49.24 bitrate=N/A speed=17.9x    frame=20121 fps=428 q=-0.0 size=N/A time=00:13:59.21 bitrate=N/A speed=17.9x    frame=20347 fps=429 q=-0.0 size=N/A time=00:14:08.63 bitrate=N/A speed=17.9x    frame=20570 fps=429 q=-0.0 size=N/A time=00:14:17.94 bitrate=N/A speed=17.9x    frame=20811 fps=429 q=-0.0 size=N/A time=00:14:27.99 bitrate=N/A speed=17.9x    frame=21039 fps=429 q=-0.0 size=N/A time=00:14:37.50 bitrate=N/A speed=17.9x    frame=21272 fps=429 q=-0.0 size=N/A time=00:14:47.21 bitrate=N/A speed=17.9x    frame=21525 fps=430 q=-0.0 size=N/A time=00:14:57.77 bitrate=N/A speed=17.9x    frame=21753 fps=430 q=-0.0 size=N/A time=00:15:07.28 bitrate=N/A speed=17.9x    frame=21970 fps=430 q=-0.0 size=N/A time=00:15:16.33 bitrate=N/A speed=17.9x    frame=22209 fps=430 q=-0.0 size=N/A time=00:15:26.30 bitrate=N/A speed=17.9x    frame=22455 fps=431 q=-0.0 size=N/A time=00:15:36.56 bitrate=N/A speed=  18x    frame=22701 fps=431 q=-0.0 size=N/A time=00:15:46.82 bitrate=N/A speed=  18x    frame=22962 fps=432 q=-0.0 size=N/A time=00:15:57.70 bitrate=N/A speed=  18x    frame=23194 fps=432 q=-0.0 size=N/A time=00:16:07.38 bitrate=N/A speed=  18x    frame=23440 fps=433 q=-0.0 size=N/A time=00:16:17.64 bitrate=N/A speed=  18x    frame=23686 fps=433 q=-0.0 size=N/A time=00:16:27.90 bitrate=N/A speed=18.1x    frame=23926 fps=433 q=-0.0 size=N/A time=00:16:37.91 bitrate=N/A speed=18.1x    frame=24163 fps=434 q=-0.0 size=N/A time=00:16:47.79 bitrate=N/A speed=18.1x    frame=24412 fps=434 q=-0.0 size=N/A time=00:16:58.18 bitrate=N/A speed=18.1x    frame=24641 fps=434 q=-0.0 size=N/A time=00:17:07.73 bitrate=N/A speed=18.1x    frame=24865 fps=434 q=-0.0 size=N/A time=00:17:17.07 bitrate=N/A speed=18.1x    frame=25077 fps=434 q=-0.0 size=N/A time=00:17:25.91 bitrate=N/A speed=18.1x    frame=25305 fps=434 q=-0.0 size=N/A time=00:17:35.42 bitrate=N/A speed=18.1x    frame=25523 fps=434 q=-0.0 size=N/A time=00:17:44.52 bitrate=N/A speed=18.1x    frame=25743 fps=434 q=-0.0 size=N/A time=00:17:53.69 bitrate=N/A speed=18.1x    frame=25932 fps=433 q=-0.0 size=N/A time=00:18:01.58 bitrate=N/A speed=18.1x    frame=26134 fps=433 q=-0.0 size=N/A time=00:18:10.00 bitrate=N/A speed=18.1x    frame=26344 fps=433 q=-0.0 size=N/A time=00:18:18.76 bitrate=N/A speed=  18x    frame=26585 fps=433 q=-0.0 size=N/A time=00:18:28.81 bitrate=N/A speed=18.1x    frame=26818 fps=433 q=-0.0 size=N/A time=00:18:38.53 bitrate=N/A speed=18.1x    frame=27009 fps=433 q=-0.0 size=N/A time=00:18:46.50 bitrate=N/A speed=  18x    frame=27245 fps=433 q=-0.0 size=N/A time=00:18:56.34 bitrate=N/A speed=  18x    frame=27465 fps=433 q=-0.0 size=N/A time=00:19:05.51 bitrate=N/A speed=  18x    frame=27677 fps=433 q=-0.0 size=N/A time=00:19:14.36 bitrate=N/A speed=  18x    frame=27913 fps=433 q=-0.0 size=N/A time=00:19:24.20 bitrate=N/A speed=  18x    frame=28150 fps=433 q=-0.0 size=N/A time=00:19:34.08 bitrate=N/A speed=18.1x    frame=28319 fps=432 q=-0.0 size=N/A time=00:19:41.13 bitrate=N/A speed=  18x    frame=28536 fps=432 q=-0.0 size=N/A time=00:19:50.18 bitrate=N/A speed=  18x    frame=28764 fps=432 q=-0.0 size=N/A time=00:19:59.69 bitrate=N/A speed=  18x    frame=28982 fps=432 q=-0.0 size=N/A time=00:20:08.79 bitrate=N/A speed=  18x    frame=29169 fps=432 q=-0.0 size=N/A time=00:20:16.59 bitrate=N/A speed=  18x    frame=29402 fps=432 q=-0.0 size=N/A time=00:20:26.30 bitrate=N/A speed=  18x    frame=29627 fps=432 q=-0.0 size=N/A time=00:20:35.69 bitrate=N/A speed=  18x    frame=29862 fps=432 q=-0.0 size=N/A time=00:20:45.49 bitrate=N/A speed=  18x    frame=30065 fps=432 q=-0.0 size=N/A time=00:20:53.96 bitrate=N/A speed=  18x    frame=30312 fps=432 q=-0.0 size=N/A time=00:21:04.26 bitrate=N/A speed=  18x    frame=30551 fps=432 q=-0.0 size=N/A time=00:21:14.23 bitrate=N/A speed=  18x    frame=30771 fps=432 q=-0.0 size=N/A time=00:21:23.40 bitrate=N/A speed=  18x    frame=31015 fps=432 q=-0.0 size=N/A time=00:21:33.58 bitrate=N/A speed=  18x    frame=31265 fps=433 q=-0.0 size=N/A time=00:21:44.01 bitrate=N/A speed=  18x    frame=31497 fps=433 q=-0.0 size=N/A time=00:21:53.68 bitrate=N/A speed=18.1x    frame=31700 fps=433 q=-0.0 size=N/A time=00:22:02.15 bitrate=N/A speed=  18x    frame=31901 fps=432 q=-0.0 size=N/A time=00:22:10.53 bitrate=N/A speed=  18x    frame=32126 fps=432 q=-0.0 size=N/A time=00:22:19.92 bitrate=N/A speed=  18x    frame=32333 fps=432 q=-0.0 size=N/A time=00:22:28.55 bitrate=N/A speed=  18x    frame=32537 fps=432 q=-0.0 size=N/A time=00:22:37.06 bitrate=N/A speed=  18x    frame=32719 fps=431 q=-0.0 size=N/A time=00:22:44.65 bitrate=N/A speed=  18x    frame=32935 fps=431 q=-0.0 size=N/A time=00:22:53.66 bitrate=N/A speed=  18x    frame=33147 fps=431 q=-0.0 size=N/A time=00:23:02.50 bitrate=N/A speed=  18x    frame=33349 fps=431 q=-0.0 size=N/A time=00:23:10.93 bitrate=N/A speed=  18x    frame=33546 fps=430 q=-0.0 size=N/A time=00:23:19.14 bitrate=N/A speed=  18x    frame=33746 fps=430 q=-0.0 size=N/A time=00:23:27.48 bitrate=N/A speed=17.9x    frame=33949 fps=430 q=-0.0 size=N/A time=00:23:35.95 bitrate=N/A speed=17.9x    frame=34165 fps=430 q=-0.0 size=N/A time=00:23:44.96 bitrate=N/A speed=17.9x    frame=34379 fps=430 q=-0.0 size=N/A time=00:23:53.89 bitrate=N/A speed=17.9x    frame=34604 fps=430 q=-0.0 size=N/A time=00:24:03.27 bitrate=N/A speed=17.9x    frame=34791 fps=429 q=-0.0 size=N/A time=00:24:11.07 bitrate=N/A speed=17.9x    frame=34976 fps=429 q=-0.0 size=N/A time=00:24:18.79 bitrate=N/A speed=17.9x    [Parsed_psnr_10 @ 000001f44e724480] PSNR y:49.357183 u:52.341358 v:52.866904 average:50.193783 min:31.834656 max:inf
[out#0/null @ 000001f448fbf200] video:15072KiB audio:274324KiB subtitle:0KiB other streams:0KiB global headers:0KiB muxing overhead: unknown
frame=35077 fps=429 q=-0.0 Lsize=N/A time=00:24:23.00 bitrate=N/A speed=17.9x    
